<?xml version="1.0" standalone="no"?>
<!DOCTYPE svg PUBLIC "-//W3C//DTD SVG 20010904//EN"
 "http://www.w3.org/TR/2001/REC-SVG-20010904/DTD/svg10.dtd">
<svg version="1.0" xmlns="http://www.w3.org/2000/svg"
 width="720.000000pt" height="720.000000pt" viewBox="0 0 720.000000 720.000000"
 preserveAspectRatio="xMidYMid meet">
<metadata>
Created by potrace 1.14, written by Peter Selinger 2001-2017
</metadata>
<g transform="translate(0.000000,720.000000) scale(0.100000,-0.100000)"
fill="#000000" stroke="none">
<path d="M3620 5981 c53 -14 150 -20 150 -10 0 5 -3 9 -7 9 -5 0 -46 2 -93 5
-61 3 -75 2 -50 -4z"/>
<path d="M2895 5920 c-3 -5 1 -10 9 -10 9 0 16 5 16 10 0 6 -4 10 -9 10 -6 0
-13 -4 -16 -10z"/>
<path d="M4316 5886 c3 -9 11 -16 16 -16 13 0 5 23 -10 28 -7 2 -10 -2 -6 -12z"/>
<path d="M2826 5851 c-4 -7 -5 -15 -2 -18 9 -9 19 4 14 18 -4 11 -6 11 -12 0z"/>
<path d="M4365 5840 c3 -5 8 -10 11 -10 2 0 4 5 4 10 0 6 -5 10 -11 10 -5 0
-7 -4 -4 -10z"/>
<path d="M2781 5804 c-7 -8 -10 -18 -7 -21 7 -7 36 16 36 28 0 13 -13 10 -29
-7z"/>
<path d="M4390 5818 c0 -2 18 -20 40 -42 48 -46 53 -41 9 9 -26 29 -49 44 -49
33z"/>
<path d="M2740 5760 c0 -5 5 -10 10 -10 6 0 10 5 10 10 0 6 -4 10 -10 10 -5 0
-10 -4 -10 -10z"/>
<path d="M2715 5730 c3 -5 8 -10 11 -10 2 0 4 5 4 10 0 6 -5 10 -11 10 -5 0
-7 -4 -4 -10z"/>
<path d="M2636 5659 c-32 -32 -54 -59 -49 -59 10 0 123 105 123 114 0 15 -19
0 -74 -55z"/>
<path d="M4495 5710 c3 -5 11 -10 16 -10 6 0 7 5 4 10 -3 6 -11 10 -16 10 -6
0 -7 -4 -4 -10z"/>
<path d="M3140 5675 c-7 -9 -11 -17 -9 -19 2 -2 85 -7 184 -11 99 -4 214 -9
255 -11 41 -1 156 -4 255 -5 195 -2 255 -6 255 -20 0 -5 -6 -6 -14 -3 -8 3
-22 2 -30 -3 -11 -6 7 -9 51 -10 l67 -2 -30 24 c-38 31 -54 33 -279 40 -181 6
-228 8 -355 20 -30 3 -119 7 -196 10 -118 4 -144 2 -154 -10z"/>
<path d="M2510 5535 c-7 -8 -9 -15 -6 -15 4 0 14 7 22 15 9 8 11 15 6 15 -5 0
-15 -7 -22 -15z"/>
<path d="M2480 5489 c0 -5 5 -7 10 -4 6 3 10 8 10 11 0 2 -4 4 -10 4 -5 0 -10
-5 -10 -11z"/>
<path d="M3240 5473 c-23 -9 -37 -10 -52 -2 -11 6 -32 8 -46 4 -15 -4 -67 -6
-117 -6 l-89 1 -136 -134 c-114 -113 -141 -134 -175 -141 -35 -6 -93 -61 -612
-580 -315 -316 -573 -577 -573 -580 0 -3 117 -5 260 -5 222 0 261 -2 266 -15
4 -11 21 -15 56 -15 57 0 57 1 -35 -69 -53 -40 -57 -46 -38 -53 51 -18 10 -55
-72 -64 -28 -3 -55 -8 -59 -11 -5 -2 -8 -150 -8 -329 0 -317 0 -324 -20 -324
-19 0 -20 8 -22 308 -2 196 -7 307 -13 307 -6 0 -11 -111 -13 -307 -2 -300 -3
-308 -22 -308 -19 0 -20 7 -20 279 0 273 -6 328 -30 266 -6 -15 -10 -137 -10
-286 0 -252 -1 -259 -20 -259 -19 0 -20 8 -22 337 -2 256 -6 337 -15 340 -10
4 -13 -70 -15 -334 -3 -330 -3 -338 -23 -338 -20 0 -20 7 -22 290 -1 160 -2
311 -2 336 l-1 46 -72 7 c-80 7 -83 9 -75 31 5 13 31 15 162 15 97 0 155 4
155 10 0 6 -1 11 -2 12 -2 0 -73 4 -158 7 -137 5 -155 8 -158 24 -3 15 7 17
100 17 105 0 152 11 108 25 -13 4 -67 8 -122 9 l-99 1 -123 -125 -124 -126 26
-12 c14 -7 34 -12 45 -12 10 0 15 -4 12 -10 -10 -16 6 -12 19 5 6 8 22 16 36
19 14 3 41 10 60 15 46 14 48 14 24 -3 -11 -8 -37 -17 -57 -21 -21 -4 -41 -13
-45 -20 -4 -8 -20 -17 -36 -21 -25 -6 -28 -4 -23 10 8 20 3 20 -17 0 -14 -14
-16 -14 -16 0 0 10 -13 3 -37 -20 -21 -19 -55 -44 -76 -55 -21 -11 -37 -27
-37 -37 0 -23 180 -202 203 -202 25 0 21 19 -6 29 -38 15 -49 34 -31 59 8 12
21 19 28 16 8 -3 23 -1 33 4 26 14 61 -16 59 -50 -2 -34 -8 -39 -24 -22 -7 8
-8 14 -2 14 5 0 10 8 9 18 0 11 -2 12 -6 4 -4 -10 -8 -10 -19 -1 -11 9 -14 7
-12 -15 1 -16 8 -26 18 -26 12 -1 12 -3 -3 -14 -15 -12 -15 -15 -3 -26 9 -6
21 -9 28 -5 7 4 5 0 -5 -8 -24 -20 -21 -34 8 -53 20 -13 40 -16 89 -12 82 7
95 -1 62 -37 -55 -59 -126 18 1000 -1097 109 -109 224 -224 255 -255 31 -32
179 -177 329 -323 150 -146 344 -337 431 -424 l158 -160 253 250 c325 321 681
677 984 985 132 134 293 294 357 354 64 61 117 115 117 120 0 6 14 21 30 35
38 31 237 221 376 359 101 99 105 104 88 122 -22 25 -30 24 -68 -8 -43 -36
-125 -71 -193 -82 -221 -34 -432 121 -473 347 -23 130 28 275 133 375 56 53
59 58 42 71 -16 11 -7 14 66 22 46 4 127 8 179 9 86 0 101 -3 162 -32 37 -17
87 -50 113 -74 41 -38 44 -44 31 -58 -14 -14 -20 -12 -53 21 -56 54 -146 98
-200 98 -57 0 -54 -22 4 -32 74 -12 193 -89 193 -124 0 -23 -30 -16 -68 17
-56 50 -108 69 -182 67 -63 -1 -64 -1 -20 -8 73 -12 210 -88 210 -116 0 -26
-20 -24 -61 6 -23 16 -51 30 -63 30 -17 -1 -12 -8 27 -43 42 -37 47 -45 34
-55 -12 -10 -22 -8 -52 13 -69 46 -165 27 -211 -43 -24 -36 -24 -120 -1 -156
45 -69 151 -88 214 -40 28 21 37 23 49 13 13 -10 12 -14 -3 -31 -30 -33 -69
-48 -128 -48 -68 0 -113 18 -147 58 -56 67 -61 163 -12 234 30 42 95 78 143
78 36 0 34 16 -5 31 -50 18 -150 -45 -185 -117 -31 -64 -25 -165 14 -223 40
-61 97 -94 168 -99 67 -5 106 7 162 51 29 22 42 26 50 18 17 -17 -1 -41 -58
-76 -43 -27 -57 -30 -129 -30 -94 0 -132 15 -194 77 -58 56 -76 109 -70 202 5
77 38 154 76 175 9 5 14 13 10 16 -10 10 -40 -3 -33 -14 3 -5 -3 -12 -13 -15
-42 -14 -82 -101 -82 -181 0 -172 159 -319 325 -302 58 6 145 46 188 85 20 19
30 23 39 14 32 -32 -91 -117 -197 -135 -56 -10 -76 -9 -133 6 -216 57 -323
288 -224 484 17 34 36 64 41 67 14 9 42 68 35 75 -9 9 -83 -79 -113 -134 -23
-45 -26 -60 -26 -160 0 -96 3 -116 24 -158 104 -209 363 -281 553 -154 18 13
34 33 36 45 3 23 19 27 76 23 16 -2 49 0 73 4 36 5 48 13 72 48 16 24 31 54
33 67 3 22 8 25 43 26 35 0 48 8 103 59 43 41 62 66 62 84 0 34 -508 545 -558
562 -19 6 -67 43 -108 82 -58 56 -71 74 -62 85 9 11 -61 86 -348 373 -207 207
-367 359 -377 359 -10 0 -32 7 -49 16 -29 15 -30 18 -15 29 25 18 22 23 -30
38 -41 12 -45 15 -25 21 39 13 20 35 -31 37 -12 0 -16 3 -9 6 19 8 14 21 -10
25 -13 2 -23 10 -23 20 0 17 -90 118 -105 118 -5 0 -6 -22 -3 -49 7 -62 -17
-91 -76 -91 -48 0 -81 35 -81 86 0 41 20 61 68 70 56 10 65 21 40 50 -15 17
-32 24 -56 24 -18 0 -40 6 -47 14 -18 18 -464 33 -475 16 -7 -12 -311 -7 -430
7 -93 11 -118 10 -150 -4z m866 -49 c32 -31 27 -56 -21 -130 -39 -58 -188
-331 -227 -414 -57 -123 -101 -230 -96 -235 3 -3 17 -1 32 5 85 32 86 -6 2
-49 -75 -37 -89 -67 -61 -121 l16 -32 -27 4 c-20 2 -29 -2 -34 -18 -8 -20 -5
-21 30 -19 32 2 40 -2 49 -22 23 -50 9 -56 -47 -18 -20 14 -40 21 -44 17 -12
-12 -31 -159 -24 -187 20 -79 154 28 280 223 91 141 128 213 198 384 65 159
91 198 131 198 30 0 67 -35 67 -63 0 -12 -21 -65 -46 -117 -62 -128 -160 -358
-184 -433 -11 -33 -20 -80 -20 -104 0 -39 2 -43 25 -43 15 0 38 6 53 14 35 18
172 161 172 179 0 8 -14 26 -32 41 l-32 26 57 0 c64 0 79 11 126 95 38 67 54
80 81 65 18 -10 21 -9 18 6 -5 29 19 26 27 -3 10 -33 10 -34 18 -53 3 -8 12
-35 20 -60 18 -53 34 -59 147 -50 41 4 79 3 83 0 8 -7 -29 -38 -78 -67 -11 -6
-19 -17 -17 -23 2 -9 -37 -11 -159 -9 -88 2 -163 7 -166 12 -11 17 -14 14
-118 -93 -70 -73 -152 -129 -200 -137 -70 -11 -118 51 -119 154 -1 35 -1 63
-2 63 -1 0 -17 -24 -36 -52 -53 -78 -141 -171 -196 -207 -74 -47 -130 -40
-151 20 -14 41 -14 122 1 210 8 54 8 73 -1 82 -10 9 -11 8 -5 -6 6 -16 2 -17
-35 -11 -42 7 -42 6 -35 -20 5 -19 2 -27 -12 -33 -9 -3 -26 -15 -36 -25 -26
-26 -38 -22 -38 12 0 32 30 56 57 46 9 -4 13 -1 10 6 -2 7 -12 12 -21 10 -15
-3 -17 2 -11 30 4 18 12 39 18 46 8 10 4 19 -16 38 -14 13 -30 24 -34 24 -5 0
-24 -26 -42 -57 -73 -122 -185 -284 -213 -308 -32 -27 -76 -33 -96 -13 -7 7
-12 45 -12 99 0 183 135 603 299 931 68 136 68 137 38 125 -79 -33 -186 -156
-304 -354 -50 -82 -253 -474 -253 -487 0 -3 21 -6 48 -7 38 0 43 -2 25 -9 -13
-5 -23 -16 -23 -24 0 -16 -48 -46 -74 -46 -41 0 -75 -106 -43 -139 10 -11 5
-12 -26 -9 -36 4 -41 1 -106 -71 -78 -87 -167 -145 -248 -161 -65 -14 -128 -5
-154 21 -25 25 -24 74 1 99 17 17 28 19 75 14 60 -7 134 14 158 44 7 10 25 24
41 32 36 19 46 41 15 33 -21 -6 -22 -4 -16 40 6 40 4 48 -13 57 -11 6 -20 15
-20 19 0 12 139 11 146 -1 7 -11 54 30 54 48 0 9 -9 10 -32 4 -18 -5 -74 -11
-125 -15 l-92 -6 -45 33 c-25 18 -45 36 -46 39 0 3 49 3 109 1 74 -3 111 -1
115 7 9 15 129 14 144 -1 8 -8 15 -8 26 1 9 7 86 131 172 275 174 289 218 357
278 430 23 28 34 47 25 44 -36 -14 -262 -183 -353 -263 -167 -149 -248 -263
-261 -365 -6 -54 -6 -55 12 -34 26 31 63 41 63 17 0 -10 3 -28 6 -40 6 -21 3
-23 -28 -23 -19 0 -39 5 -45 11 -8 8 -17 7 -34 -5 -24 -17 -66 -21 -85 -8 -20
13 -34 50 -34 89 0 123 158 299 427 475 109 71 359 219 438 259 118 60 217 75
260 39 21 -17 19 -84 -2 -101 -17 -14 -84 -114 -123 -184 -157 -280 -338 -742
-340 -867 0 -62 25 -32 164 190 53 84 96 157 96 161 0 5 -6 12 -12 14 -7 3 -3
6 8 6 17 1 42 34 110 144 219 353 382 560 513 649 36 25 68 22 97 -8z m567
-1066 c9 -11 17 -29 17 -40 0 -17 -5 -20 -30 -16 -17 3 -33 1 -36 -4 -3 -4 10
-8 29 -8 41 0 48 -7 76 -83 24 -67 27 -67 -86 20 -80 62 -103 73 -103 53 0 -6
-8 -13 -17 -17 -10 -3 -34 -21 -55 -39 -20 -18 -46 -38 -58 -44 -21 -11 -22
-10 -15 21 4 18 11 40 16 49 9 18 23 72 21 82 -1 4 3 19 8 33 l10 27 103 -7
c85 -6 105 -10 120 -27z m507 -103 c-7 -8 -16 -15 -21 -15 -5 0 -6 7 -3 15 4
8 13 15 21 15 13 0 13 -3 3 -15z m180 -9 c-4 -12 -12 -21 -18 -21 -19 0 -27
-16 -12 -25 21 -13 52 7 48 33 -2 16 3 23 18 25 23 3 34 -19 34 -70 0 -16 6
-28 13 -28 9 0 9 -2 -1 -9 -11 -6 -11 -17 -1 -57 6 -27 16 -55 22 -61 6 -9 43
-13 116 -13 81 -1 102 -3 87 -11 -10 -6 -55 -10 -100 -9 -44 2 -90 3 -101 3
-27 0 -191 -12 -242 -19 -43 -5 -104 14 -118 36 -6 10 17 12 105 8 87 -4 113
-2 117 9 3 7 11 13 19 13 17 0 18 12 3 27 -8 8 -8 17 0 30 5 11 7 30 4 42 -4
17 -8 19 -19 10 -8 -6 -14 -9 -14 -5 0 3 -11 1 -24 -4 -32 -12 -357 -22 -374
-11 -19 11 22 37 74 45 28 5 45 14 51 28 8 19 10 19 25 4 20 -20 49 -21 42 -2
-3 7 2 16 10 19 11 4 13 1 9 -10 -5 -14 -1 -15 27 -9 19 3 37 10 40 15 3 5 18
13 33 16 15 4 27 11 27 17 0 5 24 8 54 7 50 -2 54 -4 46 -23z m-2545 -26 c0
-14 6 -29 13 -33 19 -13 14 -26 -8 -20 -11 3 -20 14 -20 24 0 11 -7 19 -17 19
-10 0 -29 9 -43 20 l-25 20 50 -2 c46 -3 50 -5 50 -28z m2645 20 c0 -5 -4 -10
-10 -10 -5 0 -10 5 -10 10 0 6 5 10 10 10 6 0 10 -4 10 -10z m-3627 -42 c8
-18 17 -45 21 -60 6 -25 4 -28 -18 -28 -13 0 -31 3 -40 6 -19 7 -21 31 -4 36
7 3 13 11 14 19 0 8 2 24 2 37 3 30 9 28 25 -10z m47 -129 c0 -16 -7 -19 -41
-19 -42 0 -41 9 6 36 24 14 35 9 35 -17z m1603 -159 c114 -43 196 -122 240
-232 18 -47 21 -79 25 -285 4 -209 2 -233 -12 -239 -9 -4 -19 -4 -22 -1 -3 3
-5 90 -5 194 1 103 -4 215 -10 248 -21 115 -90 207 -196 260 -54 27 -66 30
-168 30 -100 0 -115 -3 -165 -27 -108 -53 -191 -168 -205 -285 -31 -246 220
-456 463 -387 18 5 22 2 22 -14 0 -27 -81 -47 -156 -38 -184 21 -319 138 -360
311 -34 144 9 279 122 385 59 55 103 77 209 104 39 10 164 -4 218 -24z m-808
-18 c60 -27 129 -92 157 -147 29 -56 35 -147 13 -220 -13 -48 -28 -69 -76
-117 l-59 -58 35 -85 c19 -47 35 -92 35 -100 0 -21 -39 -19 -46 3 -27 82 -69
172 -80 172 -19 0 -19 2 20 -96 29 -71 32 -86 20 -91 -21 -8 -29 2 -64 87 -34
79 -46 98 -56 87 -4 -3 8 -41 25 -84 37 -93 37 -95 9 -91 -18 2 -29 19 -53 85
-33 89 -39 98 -53 89 -6 -3 2 -36 19 -78 34 -87 35 -98 10 -98 -15 0 -26 19
-52 90 l-32 90 -59 0 c-51 0 -59 2 -56 18 3 15 21 18 158 22 175 6 212 18 269
87 84 102 79 241 -12 334 -70 72 -80 74 -384 77 l-273 3 -2 -358 c-3 -332 -4
-358 -20 -361 -17 -3 -18 20 -18 376 0 208 3 382 8 386 4 4 133 6 287 4 266
-3 282 -4 330 -26z m1654 18 c123 -21 231 -101 288 -217 25 -52 28 -68 28
-158 0 -86 -4 -107 -26 -155 -40 -85 -99 -144 -187 -187 l-76 -38 -258 -3
-258 -3 0 385 0 386 213 0 c116 0 241 -5 276 -10z m441 -2 c3 -113 -1 -752 -4
-756 -3 -2 -12 -2 -21 1 -13 6 -15 53 -15 387 0 373 0 380 20 380 11 0 20 -6
20 -12z m80 -373 c0 -378 0 -385 -20 -385 -20 0 -20 7 -20 385 0 378 0 385 20
385 20 0 20 -7 20 -385z m74 0 c1 -374 1 -380 -19 -380 -20 0 -20 8 -23 370
-1 203 0 376 3 383 3 8 12 12 22 10 15 -3 16 -36 17 -383z m76 0 c0 -378 0
-385 -20 -385 -20 0 -20 7 -20 378 0 208 3 382 7 385 3 4 12 7 20 7 11 0 13
-71 13 -385z m-1527 297 c72 -32 122 -78 159 -145 l33 -62 3 -237 c3 -235 3
-238 -17 -238 -21 0 -21 4 -21 218 0 181 -3 225 -17 265 -23 64 -69 116 -134
152 -48 26 -64 30 -139 30 -103 0 -158 -22 -222 -88 -58 -59 -82 -128 -76
-215 8 -104 52 -174 144 -228 53 -31 163 -44 227 -26 36 10 38 9 35 -11 -4
-28 -54 -40 -145 -35 -182 12 -311 154 -301 333 8 146 91 255 233 302 56 18
180 10 238 -15z m-854 -2 c19 -5 52 -22 73 -37 132 -91 117 -293 -26 -363 -36
-17 -65 -20 -187 -23 -130 -2 -144 0 -147 16 -3 15 8 17 115 17 174 1 220 16
271 90 16 24 22 47 22 89 0 68 -22 109 -81 148 l-42 28 -226 0 -226 0 -1 -305
c-2 -370 0 -340 -24 -340 -20 0 -20 7 -20 345 l0 345 233 0 c127 0 247 -4 266
-10z m-659 -55 c0 -20 -68 -20 -94 0 -18 14 -15 15 37 15 44 0 57 -3 57 -15z
m-636 -10 c-4 -8 -10 -12 -15 -9 -11 6 -2 24 11 24 5 0 7 -7 4 -15z m2136 -10
c53 -28 107 -88 122 -136 9 -30 13 -110 13 -254 0 -203 -1 -210 -20 -210 -19
0 -20 7 -20 215 0 211 0 216 -25 260 -14 24 -44 58 -68 74 -37 26 -55 31 -116
34 -78 4 -117 -8 -164 -52 -114 -103 -75 -304 69 -351 51 -17 142 -17 182 0
13 5 17 2 17 -13 0 -41 -118 -55 -208 -26 -99 32 -160 112 -164 217 -5 111 41
195 134 242 47 24 62 26 133 23 51 -3 93 -11 115 -23z m-830 -13 c94 -47 106
-157 25 -232 -25 -24 -33 -25 -177 -28 -141 -4 -150 -3 -146 15 3 16 17 19
138 23 74 3 143 9 153 14 23 11 47 58 47 92 0 16 -12 38 -34 60 l-34 34 -181
0 -181 0 0 -285 c0 -278 0 -285 -20 -285 -20 0 -20 7 -20 305 l0 305 198 0
c168 0 202 -3 232 -18z m-649 -18 c13 -36 8 -38 -30 -10 -32 24 -32 24 -9 29
12 2 24 5 26 6 1 0 7 -11 13 -25z m1412 -25 c51 -14 104 -63 117 -107 5 -20
10 -128 10 -239 0 -194 -1 -203 -19 -203 -19 0 -20 10 -23 221 l-3 221 -36 33
c-90 82 -233 37 -246 -77 -14 -122 88 -184 235 -142 16 5 22 2 22 -9 0 -26
-40 -41 -110 -41 -119 0 -190 66 -190 175 0 77 43 138 117 164 46 17 76 18
126 4z m-806 -20 c35 -13 43 -25 43 -66 0 -52 -35 -64 -177 -61 -103 3 -118 5
-121 21 -3 15 7 17 111 17 128 0 147 4 147 30 0 24 -27 30 -157 30 -105 0
-112 -1 -118 -21 -4 -12 -6 -124 -4 -248 4 -221 4 -226 -16 -226 -20 0 -20 6
-18 253 1 139 4 260 7 268 4 11 32 14 140 14 74 0 147 -5 163 -11z m-1437 -23
c0 -2 -9 -6 -20 -9 -11 -3 -18 -1 -14 4 5 9 34 13 34 5z m4880 -188 c0 -10 -7
-18 -16 -18 -11 0 -14 5 -10 16 3 9 6 23 6 32 0 15 2 15 10 2 5 -8 10 -23 10
-32z m-4566 18 c-31 -14 -124 -36 -147 -36 -27 1 32 24 88 36 81 16 96 16 59
0z m2156 -581 c42 -21 100 -74 100 -91 0 -7 25 -24 56 -38 76 -35 131 -80 170
-141 31 -49 36 -52 83 -58 94 -11 184 -73 215 -149 42 -100 1 -205 -105 -271
-20 -12 -36 -41 -63 -115 -43 -117 -44 -124 -12 -116 17 4 31 -2 51 -22 22
-22 29 -24 36 -13 5 8 9 9 9 3 0 -6 20 -20 44 -31 70 -30 37 -53 -61 -44 -7 0
-13 9 -13 19 0 26 -10 33 -32 21 -13 -7 -17 -17 -14 -32 3 -12 3 -17 1 -11 -3
6 -19 9 -35 6 -16 -2 -28 -8 -25 -12 3 -5 0 -12 -6 -16 -6 -3 -15 -1 -19 6 -5
8 -9 5 -13 -9 -3 -13 -1 -19 5 -15 6 4 8 1 6 -7 -3 -8 -10 -13 -16 -12 -5 1
-17 -15 -25 -36 l-16 -38 -83 -6 c-46 -4 -104 -7 -130 -7 -57 0 -64 -17 -10
-23 20 -2 -35 -4 -123 -5 -88 -1 -178 -5 -200 -8 -32 -4 -37 -3 -25 6 12 10
12 11 -5 4 -49 -18 -117 9 -98 39 5 8 8 7 11 -1 2 -8 23 -11 55 -10 l52 1 -45
4 c-25 3 -52 11 -61 19 -8 8 -19 11 -22 7 -4 -3 -7 -1 -7 6 0 8 -6 11 -16 7
-10 -4 -14 -1 -11 6 2 7 12 12 21 12 21 -2 20 13 -4 56 -12 21 -19 28 -20 18
0 -19 -25 -14 -48 9 -12 12 -55 18 -107 16 -11 -1 -36 3 -55 8 -19 6 -60 12
-90 15 -30 3 -71 10 -90 17 -19 6 -39 10 -44 9 -5 -2 -2 8 7 22 15 22 15 25 1
30 -9 3 -25 6 -37 6 -21 0 -21 1 2 13 32 16 31 31 -5 37 -19 4 -25 8 -16 13 7
5 10 13 7 18 -4 5 3 9 15 9 14 0 24 -9 31 -30 8 -22 20 -32 46 -39 35 -10 73
-1 73 17 0 4 9 13 20 20 28 17 46 5 26 -17 -19 -21 -12 -31 20 -31 14 0 25 -8
29 -20 8 -24 56 -28 75 -5 14 17 7 21 -45 28 -16 3 -3 5 30 5 125 1 118 -8 74
101 -28 70 -35 79 -82 106 -63 37 -108 104 -115 173 -8 85 51 169 149 214 28
13 50 32 58 49 33 75 140 162 238 193 59 20 70 41 36 73 -24 23 -22 49 5 57
36 10 158 -1 192 -19z m-837 -802 c-7 -2 -19 -2 -25 0 -7 3 -2 5 12 5 14 0 19
-2 13 -5z m-108 -83 c11 -5 15 -9 8 -9 -6 -1 -19 -4 -29 -8 -12 -4 -15 -3 -10
6 6 8 0 10 -21 6 -23 -4 -24 -4 -8 4 25 12 35 12 60 1z m1827 -85 c6 -29 -7
-34 -15 -6 -4 17 0 31 9 31 1 0 4 -11 6 -25z m-257 -9 l48 -25 -59 6 c-60 6
-87 23 -56 35 9 4 17 7 18 7 0 1 22 -10 49 -23z m171 -7 c3 -5 2 -9 -3 -8 -23
4 -63 -2 -63 -10 0 -5 12 -12 28 -16 26 -8 25 -8 -17 -17 -32 -7 -40 -12 -30
-19 8 -5 9 -9 4 -9 -16 0 -35 22 -35 39 0 26 49 58 81 53 16 -2 32 -8 35 -13z
m-346 -125 c0 -2 -7 -4 -15 -4 -8 0 -15 4 -15 10 0 5 7 7 15 4 8 -4 15 -8 15
-10z m54 10 c26 -10 18 -24 -14 -24 -26 0 -29 2 -18 15 16 17 13 16 32 9z
m-947 -70 c-3 -3 -12 -4 -19 -1 -8 3 -5 6 6 6 11 1 17 -2 13 -5z m302 -108
c-2 -2 -17 -6 -34 -10 -22 -5 -26 -4 -15 4 14 9 59 15 49 6z m239 -3 c-21 -2
-38 -8 -38 -14 0 -5 -14 -9 -31 -9 -16 0 -28 4 -24 10 3 5 -24 11 -67 13 -40
1 -12 3 62 3 74 1 118 -1 98 -3z m119 1 c-3 -3 -12 -4 -19 -1 -8 3 -5 6 6 6
11 1 17 -2 13 -5z m3 -24 c0 -13 -11 -13 -30 0 -12 8 -11 10 8 10 12 0 22 -4
22 -10z m-165 -110 c3 -5 -3 -10 -15 -10 -12 0 -18 5 -15 10 3 6 10 10 15 10
5 0 12 -4 15 -10z m82 -106 c-10 -11 -107 -14 -107 -4 0 6 26 10 57 10 31 0
54 -3 50 -6z m-164 -21 c-7 -2 -21 -2 -30 0 -10 3 -4 5 12 5 17 0 24 -2 18 -5z"/>
<path d="M3843 5188 c-70 -86 -212 -286 -214 -302 -5 -36 -3 -86 4 -86 4 0 7
-4 7 -10 0 -5 -12 -10 -26 -10 -14 0 -23 -4 -19 -10 3 -5 15 -10 25 -10 20 0
50 -35 50 -57 0 -21 -99 -13 -111 9 -6 11 -6 18 0 18 9 0 31 52 31 73 0 19
-29 -16 -69 -83 -23 -38 -41 -73 -41 -78 0 -5 26 -12 58 -16 31 -4 69 -8 85
-10 18 -3 27 0 27 10 0 8 -10 14 -24 14 -14 0 -28 5 -32 12 -5 8 4 10 34 6
l40 -6 37 107 c43 128 112 300 165 416 21 47 38 85 36 85 -2 0 -30 -33 -63
-72z"/>
<path d="M4536 4633 c-11 -11 -6 -23 9 -23 8 0 15 4 15 9 0 13 -16 22 -24 14z"/>
<path d="M4488 4561 c-31 -44 -33 -51 -15 -51 6 0 22 20 34 45 27 55 17 58
-19 6z"/>
<path d="M3589 4557 c7 -7 14 -8 21 -1 6 6 2 10 -12 11 -16 2 -18 -1 -9 -10z"/>
<path d="M5406 4045 c4 -8 8 -15 10 -15 2 0 4 7 4 15 0 8 -4 15 -10 15 -5 0
-7 -7 -4 -15z"/>
<path d="M3882 3533 l3 -338 230 0 c228 0 230 0 287 27 76 35 142 98 175 167
23 47 28 69 28 141 0 71 -4 94 -26 141 -36 76 -89 133 -157 166 -57 28 -57 28
-300 31 l-242 3 2 -338z m509 281 c67 -31 114 -78 149 -146 55 -111 37 -244
-45 -336 -23 -26 -64 -58 -91 -72 -48 -24 -54 -25 -269 -25 l-220 0 -3 290
c-1 159 0 296 3 303 4 11 47 13 217 10 191 -3 218 -5 259 -24z"/>
<path d="M3957 3793 c-4 -3 -7 -123 -7 -265 l0 -258 188 0 c166 0 192 3 232
21 180 81 216 317 68 443 -66 57 -109 66 -303 66 -94 0 -175 -3 -178 -7z m401
-49 c141 -58 182 -255 77 -367 -56 -59 -88 -67 -275 -67 l-170 0 0 225 0 225
165 0 c127 0 174 -4 203 -16z"/>
<path d="M4030 3534 l0 -185 158 3 c144 3 160 5 185 25 52 40 69 71 74 132 7
76 0 102 -39 147 -50 56 -78 64 -238 64 l-140 0 0 -186z m317 130 c92 -69 95
-194 6 -254 -34 -23 -45 -25 -162 -25 l-125 0 -4 144 c-3 113 -1 145 9 153 8
5 67 7 131 5 99 -3 122 -6 145 -23z"/>
<path d="M4108 3635 c-1 -10 -2 -62 0 -116 l3 -99 83 0 c46 0 97 5 114 11 77
27 89 134 23 194 -18 16 -41 20 -121 23 -87 4 -98 2 -102 -13z"/>
<path d="M3373 2693 c-70 -4 -72 -4 -116 -52 -24 -26 -50 -64 -58 -84 -10 -30
-20 -39 -49 -47 -44 -12 -102 -55 -124 -92 -19 -31 -21 -100 -5 -131 19 -36
52 -64 96 -83 l41 -18 80 -200 c44 -111 83 -211 87 -223 6 -22 11 -23 123 -25
64 -1 135 -1 157 -1 22 1 94 2 161 2 l121 1 87 218 c47 119 86 225 86 235 0
10 8 17 20 17 12 0 25 10 32 25 8 18 14 22 19 13 11 -18 45 16 60 59 33 102
-57 199 -197 211 l-65 5 -21 48 c-11 27 -38 65 -59 84 l-39 35 -103 0 c-56 0
-138 2 -182 4 -44 2 -112 1 -152 -1z m369 -124 l23 0 -22 -11 c-16 -8 -23 -20
-23 -41 0 -29 -1 -30 -19 -13 -13 12 -27 15 -42 11 -19 -6 -21 -4 -16 16 4 15
0 30 -10 41 -15 17 -14 18 15 18 23 0 32 6 38 22 6 20 7 19 20 -10 9 -22 20
-32 36 -33z m-214 16 c25 7 30 -10 6 -19 -11 -4 -14 -12 -9 -24 4 -9 9 -23 12
-30 4 -10 0 -10 -22 0 -23 10 -29 10 -40 -5 -17 -23 -24 -21 -18 4 4 15 -1 27
-17 39 l-23 17 27 7 c18 4 26 13 26 29 l0 22 19 -24 c13 -17 23 -22 39 -16z
m-206 -54 c24 13 35 5 20 -14 -9 -10 -8 -19 4 -35 14 -21 14 -22 -9 -22 -19 0
-27 -7 -32 -27 l-8 -28 -10 33 c-8 25 -16 32 -36 33 -26 0 -26 0 -3 11 15 8
22 20 22 40 0 27 1 28 16 14 12 -12 20 -14 36 -5z m584 -3 c-4 -17 1 -28 17
-40 l22 -18 -22 0 c-16 0 -25 -8 -29 -25 -7 -30 -20 -32 -29 -5 -5 14 -15 20
-37 20 l-30 0 22 18 c19 16 21 22 11 40 -13 25 -9 27 21 11 16 -9 24 -7 36 5
22 21 25 20 18 -6z m-703 -166 c22 -10 22 -10 -5 -17 -22 -5 -28 -13 -28 -34
l-1 -26 -19 23 c-14 17 -25 22 -40 17 -22 -7 -26 5 -8 23 9 9 9 18 0 37 -11
24 -11 25 9 14 18 -9 25 -7 43 10 l21 22 3 -29 c2 -19 11 -33 25 -40z m850 40
c30 6 31 5 16 -23 -8 -16 -7 -25 8 -41 18 -21 18 -21 -9 -14 -21 5 -31 2 -40
-14 -14 -22 -30 -27 -27 -7 3 27 -2 35 -28 42 l-28 7 28 10 c20 7 28 16 26 32
-2 36 0 41 14 21 10 -12 22 -16 40 -13z"/>
<path d="M2860 1911 c0 -10 30 -24 37 -17 3 3 2 9 -2 15 -8 13 -35 15 -35 2z"/>
<path d="M2940 1890 c0 -5 5 -10 10 -10 6 0 10 5 10 10 0 6 -4 10 -10 10 -5 0
-10 -4 -10 -10z"/>
<path d="M3418 1653 c7 -3 16 -2 19 1 4 3 -2 6 -13 5 -11 0 -14 -3 -6 -6z"/>
<path d="M4535 5450 c3 -5 0 -10 -8 -10 -8 0 -20 -7 -27 -15 -7 -8 -22 -15
-33 -15 -15 0 0 -20 61 -80 l81 -81 53 27 c29 15 64 37 78 50 14 13 34 30 45
38 20 14 20 15 -1 43 -25 34 -54 40 -95 19 -26 -13 -31 -13 -36 0 -3 9 -21 14
-54 14 -27 0 -49 5 -49 10 0 6 -5 10 -11 10 -5 0 -7 -4 -4 -10z m165 -60 c-20
-13 -47 -13 -55 0 -4 6 9 10 32 10 28 0 34 -3 23 -10z"/>
<path d="M4420 5439 c0 -5 5 -7 10 -4 6 3 10 8 10 11 0 2 -4 4 -10 4 -5 0 -10
-5 -10 -11z"/>
<path d="M4806 5427 c3 -10 9 -15 12 -12 3 3 0 11 -7 18 -10 9 -11 8 -5 -6z"/>
<path d="M4871 5414 c-12 -14 -20 -28 -17 -31 5 -6 76 44 76 53 0 14 -40 0
-59 -22z"/>
<path d="M5037 5424 c-8 -8 1 -24 14 -24 5 0 9 7 9 15 0 15 -12 20 -23 9z"/>
<path d="M1930 5337 c0 -7 -13 -23 -30 -35 -29 -22 -42 -18 -18 6 14 14 6 15
-47 2 -26 -6 -42 -5 -46 2 -4 7 -13 7 -27 -1 -11 -6 -27 -9 -34 -6 -7 3 -62
-15 -122 -40 -60 -25 -119 -45 -132 -45 -12 0 -55 -14 -95 -31 -41 -17 -94
-37 -119 -44 -25 -7 -83 -28 -130 -45 -47 -17 -101 -36 -120 -41 -19 -6 -39
-14 -45 -18 -9 -7 -39 -14 -180 -42 -69 -13 -248 -79 -297 -109 -45 -27 -20
-25 50 4 31 13 75 26 97 30 37 6 39 5 21 -9 -11 -8 -27 -15 -35 -15 -63 -1
-202 -75 -186 -100 3 -5 -9 -19 -27 -30 -18 -11 -28 -21 -23 -21 6 -1 17 -3
25 -3 8 -1 14 -7 13 -14 -4 -18 28 -14 62 7 17 10 55 24 85 31 30 7 68 16 84
21 16 5 70 14 120 19 50 6 95 15 100 20 13 13 106 13 106 0 0 -7 18 -8 50 -4
61 8 66 -6 10 -31 -42 -19 -53 -48 -28 -73 20 -20 -1 -27 -78 -25 -58 1 -74
-1 -74 -13 0 -8 -10 -14 -22 -14 -13 0 -72 -16 -133 -35 -63 -20 -111 -30
-113 -24 -2 5 -18 1 -35 -10 -74 -45 -109 -61 -131 -61 -13 0 -30 -7 -37 -16
-8 -9 -31 -28 -52 -41 -21 -13 -37 -29 -36 -36 3 -25 -1 -37 -14 -37 -22 0
-229 -137 -249 -165 -4 -5 -3 -11 2 -13 18 -6 10 -22 -15 -34 -24 -11 -25 -16
-25 -90 l0 -79 47 6 c69 10 122 24 167 46 22 10 57 19 78 19 25 0 41 5 44 15
6 15 54 22 54 7 0 -4 -15 -16 -32 -27 -40 -23 -53 -41 -53 -78 -1 -19 3 -26
13 -22 7 3 16 5 18 5 2 0 4 11 4 24 0 15 12 33 34 50 39 29 58 34 50 11 -4
-10 0 -15 15 -15 12 0 21 -6 21 -15 0 -11 7 -14 25 -9 31 8 33 -6 4 -25 -17
-10 -23 -10 -29 0 -6 9 -15 7 -36 -10 -20 -16 -29 -18 -35 -9 -6 9 -13 8 -28
-6 -25 -23 -27 -46 -5 -46 13 0 14 -3 5 -14 -17 -20 1 -28 34 -16 39 15 58 13
51 -6 -5 -12 -2 -15 10 -10 8 3 18 6 20 6 2 0 4 7 4 15 0 10 10 15 28 15 l27
0 -37 -35 c-28 -27 -45 -35 -73 -35 -32 0 -36 -2 -30 -21 7 -22 -27 -69 -50
-69 -27 0 -65 -42 -65 -71 0 -27 3 -29 32 -28 18 1 60 10 92 21 93 30 146 38
146 22 0 -14 -11 -18 -41 -15 -9 1 -22 -5 -29 -14 -7 -8 -23 -15 -37 -15 -29
0 -73 -27 -73 -45 0 -7 -6 -15 -12 -18 -7 -2 -10 -8 -6 -12 4 -4 36 5 72 19
35 14 69 26 75 26 20 0 11 -15 -19 -32 -38 -22 -40 -42 -2 -23 103 50 188 68
198 40 4 -10 20 -15 44 -15 22 0 42 -4 45 -10 4 -6 -6 -10 -23 -10 -16 0 -48
-6 -70 -14 -22 -8 -62 -17 -89 -21 -74 -9 -93 -15 -93 -25 0 -19 91 -22 192
-5 107 19 165 43 73 31 -46 -6 -48 -5 -31 9 11 8 31 15 46 15 15 0 30 9 38 21
10 16 16 18 27 9 15 -13 75 -5 75 10 0 5 -9 12 -20 15 -11 3 -20 11 -20 17 0
6 -28 37 -62 70 l-63 59 721 719 c557 557 716 720 697 720 -33 0 -29 17 7 25
17 4 30 10 30 15 0 4 15 14 33 21 17 7 37 18 44 25 20 20 1 25 -26 7 -15 -10
-47 -17 -78 -18 -28 0 -55 -4 -59 -8 -15 -14 -25 -6 -19 15 6 18 4 20 -11 13
-51 -20 -76 -24 -71 -11 8 21 -13 36 -50 36 -21 0 -33 -5 -33 -13z m-1270
-487 c-8 -5 -17 -7 -19 -4 -3 3 1 9 9 14 8 5 17 7 19 4 3 -3 -1 -9 -9 -14z
m220 -685 c0 -5 -55 -35 -65 -35 -14 0 -3 29 13 33 25 7 52 8 52 2z m-127
-312 c-7 -2 -19 -2 -25 0 -7 3 -2 5 12 5 14 0 19 -2 13 -5z m-384 -112 c-21
-20 -36 -28 -42 -22 -12 12 -1 44 13 36 5 -3 20 1 32 9 34 24 33 11 -3 -23z
m381 -57 c0 -2 -12 -4 -26 -4 -14 0 -23 4 -20 9 6 8 46 4 46 -5z m96 -23 c-7
-11 -56 -21 -56 -11 0 13 13 20 37 20 13 0 22 -4 19 -9z"/>
<path d="M2264 5246 c-44 -38 -42 -56 5 -32 16 9 43 16 58 16 15 1 41 12 58
27 28 24 29 25 3 9 -34 -20 -49 -21 -42 -1 11 28 -41 16 -82 -19z"/>
<path d="M4670 5210 c-18 -6 -5 -8 43 -7 38 1 74 5 80 9 16 10 -92 8 -123 -2z"/>
<path d="M2290 5190 c0 -7 -93 -40 -113 -40 -6 0 -316 -306 -690 -680 l-681
-681 54 -54 c32 -32 61 -53 70 -51 134 36 67 -24 855 764 399 398 724 726 723
727 -2 2 -39 -3 -83 -11 -44 -7 -93 -13 -110 -13 -29 0 -29 0 -11 14 11 8 28
15 37 15 10 0 20 4 23 9 3 4 -12 8 -34 8 -22 0 -40 -3 -40 -7z m-1223 -1387
c-9 -9 -19 -14 -23 -11 -10 10 6 28 24 28 15 0 15 -1 -1 -17z"/>
<path d="M4685 5181 c-13 -22 31 -29 95 -14 48 10 73 11 93 4 49 -19 30 -31
-47 -31 -78 0 -103 -13 -72 -36 12 -8 36 -11 70 -7 40 4 55 2 65 -11 17 -20
14 -23 -29 -31 -19 -3 -36 -7 -37 -9 -2 -1 151 -156 339 -344 l342 -342 34 20
c33 20 62 19 32 0 -27 -17 7 -10 56 11 54 25 69 36 78 65 9 28 -297 335 -316
316 -17 -17 -38 -15 -38 3 0 9 9 15 22 15 16 0 -5 27 -97 120 -100 101 -122
119 -142 114 -24 -6 -30 5 -13 22 8 8 6 15 -5 24 -14 12 -18 11 -25 -1 -8 -12
-13 -10 -32 9 -19 19 -20 22 -5 22 9 0 17 4 17 8 0 21 -39 40 -94 46 -72 8
-91 18 -51 27 17 4 -29 7 -102 8 -74 0 -134 -3 -138 -8z"/>
<path d="M5090 5151 c0 -17 45 -38 65 -30 11 4 34 11 50 15 l30 7 -25 7 c-36
11 -120 12 -120 1z"/>
<path d="M5528 5108 c-18 -27 -82 -40 -220 -45 -65 -2 -118 -7 -118 -11 0 -11
213 -207 221 -205 41 13 89 19 89 13 0 -5 -13 -11 -30 -15 -16 -4 -30 -11 -30
-16 0 -12 1 -12 63 11 65 24 82 42 92 94 6 35 5 38 -9 27 -17 -14 -46 -8 -46
9 0 5 12 10 26 10 21 0 25 4 22 18 -7 26 23 42 78 42 37 0 74 10 93 26 7 6
-35 42 -59 49 -13 4 -55 9 -92 10 -57 2 -69 0 -80 -17z m52 -35 c0 -11 -50
-33 -74 -33 -25 0 -13 12 27 27 39 14 47 15 47 6z m60 -2 c0 -5 -9 -11 -21
-14 -16 -4 -18 -3 -8 9 13 16 29 19 29 5z m-315 -41 c8 -12 -42 -12 -70 0 -16
7 -11 9 22 9 23 1 45 -3 48 -9z m210 -151 c-10 -15 -25 -10 -19 6 4 8 10 12
15 9 5 -3 7 -10 4 -15z"/>
<path d="M6135 4885 c-33 -7 -73 -18 -90 -25 -50 -20 -458 -90 -527 -90 -16 0
-28 -4 -28 -8 0 -12 295 -302 308 -302 6 0 14 4 17 10 3 5 18 7 33 4 20 -4 32
0 43 12 8 11 9 15 2 10 -7 -4 -13 -4 -13 1 0 4 26 22 58 38 58 31 74 44 66 56
-4 7 34 27 90 49 16 6 26 13 23 17 -4 3 -20 0 -37 -7 -17 -7 -34 -10 -37 -6
-4 3 12 14 35 23 38 14 40 17 24 29 -9 7 -26 14 -37 14 -18 1 39 34 94 54 39
15 63 34 51 41 -9 6 -6 13 11 26 l24 19 -30 0 c-21 0 -26 3 -16 9 7 5 11 13 7
19 -3 6 0 13 6 15 22 9 -13 5 -77 -8z"/>
<path d="M285 4770 c-3 -5 3 -10 14 -10 12 0 21 5 21 10 0 6 -6 10 -14 10 -8
0 -18 -4 -21 -10z"/>
<path d="M313 4743 c-4 -10 -11 -21 -17 -25 -6 -4 8 -8 30 -8 39 0 41 2 36 25
-5 29 -39 35 -49 8z"/>
<path d="M923 4733 c9 -2 23 -2 30 0 6 3 -1 5 -18 5 -16 0 -22 -2 -12 -5z"/>
<path d="M773 4683 c9 -2 23 -2 30 0 6 3 -1 5 -18 5 -16 0 -22 -2 -12 -5z"/>
<path d="M660 4663 c-68 -18 -93 -38 -35 -28 43 8 130 43 105 43 -8 0 -40 -6
-70 -15z"/>
<path d="M6328 4232 c-21 -2 -38 -7 -38 -13 0 -5 5 -9 11 -9 7 0 9 -10 5 -26
l-7 -26 56 7 c31 4 55 3 55 -2 0 -16 -24 -33 -47 -33 -16 0 -21 -4 -17 -15 7
-18 -7 -20 -24 -3 -10 10 -14 10 -21 0 -7 -12 -65 -11 -78 1 -8 9 -93 9 -93 1
0 -4 73 -78 163 -165 l162 -158 -95 -95 -95 -96 95 -95 95 -95 -648 -647
c-356 -356 -647 -649 -647 -650 0 -1 16 -5 35 -9 52 -9 31 -27 -24 -19 -40 5
-48 3 -59 -16 -12 -19 -12 -21 3 -15 9 3 41 6 71 6 41 0 54 4 54 15 0 8 9 15
20 15 11 0 20 -5 20 -11 0 -7 8 -9 23 -4 12 3 30 8 39 9 21 3 37 16 20 16 -7
0 -12 4 -12 8 0 5 30 3 68 -4 37 -7 102 -13 144 -13 42 0 87 -5 99 -11 18 -10
25 -8 50 19 15 17 32 31 38 31 5 0 18 3 28 7 16 6 17 5 3 -12 -14 -17 -13 -18
15 -11 87 21 106 28 115 46 14 27 61 26 78 -1 10 -16 19 -19 42 -14 15 3 37 1
47 -5 13 -8 28 -9 53 -2 26 8 29 10 12 11 -33 1 -17 21 17 21 29 0 124 25 151
40 8 4 14 13 13 18 -1 6 28 22 66 37 37 14 77 32 87 40 13 10 1 8 -35 -5 -30
-12 -61 -19 -70 -17 -9 2 12 14 47 26 34 13 62 27 62 31 0 11 -46 21 -64 14
-9 -3 -16 -2 -16 3 0 9 91 53 109 53 4 0 16 9 26 20 10 11 25 20 34 20 12 0
12 3 3 12 -16 16 -15 28 3 28 27 0 15 20 -12 21 -16 0 -22 3 -15 6 6 2 12 14
12 25 0 15 -4 18 -17 13 -10 -4 -38 -13 -63 -20 -25 -8 -65 -21 -89 -30 -90
-33 -192 -39 -360 -20 -86 9 -160 20 -166 23 -5 4 -20 5 -32 3 -13 -1 -23 2
-23 8 0 6 6 11 14 11 7 0 21 11 30 25 9 14 28 32 42 42 26 16 27 16 44 -5 18
-22 40 -29 40 -13 0 12 56 31 91 31 16 0 29 -4 29 -10 0 -5 5 -10 11 -10 7 0
9 9 6 23 -5 16 0 25 18 33 13 7 29 8 37 3 23 -15 88 -11 94 6 4 11 21 15 56
15 45 0 49 2 43 20 -5 15 0 22 20 30 14 5 24 14 21 19 -3 5 2 12 11 16 10 3
19 1 21 -4 2 -6 10 -11 18 -11 9 0 13 -4 10 -9 -3 -5 8 -14 24 -20 31 -10 39
-4 18 17 -9 9 -2 12 35 12 26 0 47 2 47 5 0 3 -7 17 -16 30 l-16 25 41 0 c36
0 40 3 38 22 -2 18 6 23 46 34 62 16 70 24 18 17 -36 -5 -41 -3 -35 11 9 25
51 31 73 12 12 -11 21 -13 25 -7 4 5 2 12 -4 16 -5 3 -10 10 -10 15 0 15 56
40 89 40 31 0 100 29 101 43 0 11 -28 9 -35 -3 -11 -18 -22 -11 -22 15 0 22 2
23 31 17 41 -9 86 -8 113 1 17 6 22 5 20 -5 -2 -7 -2 -10 0 -5 3 4 32 7 64 7
36 0 58 4 54 10 -3 5 3 18 15 30 19 19 20 32 20 215 l0 195 -34 0 c-26 0 -35
5 -39 21 l-6 20 -21 -21 c-15 -15 -25 -19 -32 -12 -14 14 -1 32 19 25 12 -5
15 -2 10 10 -7 19 35 57 64 57 10 0 23 9 29 19 15 28 13 148 -2 155 -10 5 -10
7 0 12 6 3 12 12 12 20 0 12 -8 13 -37 7 -47 -10 -105 -9 -160 1 -36 7 -43 6
-43 -8 0 -18 -45 -23 -55 -6 -3 6 3 10 14 10 26 0 26 5 2 29 -14 14 -21 16
-25 8 -3 -8 -10 -5 -21 8 -16 19 -14 20 47 29 35 4 65 10 67 12 3 2 -4 11 -15
19 -12 9 -43 14 -82 15 -35 0 -71 4 -80 9 -9 4 -32 11 -49 14 -25 5 -33 3 -33
-8 0 -15 -46 -19 -200 -18 -98 2 -88 17 15 24 202 13 261 21 236 31 -14 5 -36
8 -50 7 -14 -1 -84 0 -156 1 l-130 4 110 6 110 6 -92 2 c-50 1 -94 6 -97 11
-11 17 6 41 27 39 41 -3 112 45 136 90 7 13 18 21 24 19 18 -6 120 37 125 52
6 19 -42 6 -79 -20 -36 -25 -57 -24 -61 4 -3 20 -8 22 -50 20 -31 -1 -48 3
-48 11 0 16 -122 15 -128 -2 -6 -18 -42 -15 -50 6 -5 13 -16 16 -44 14z m262
-63 c0 -12 -37 -12 -44 0 -7 11 14 20 32 13 6 -2 12 -8 12 -13z m22 -51 c-6
-6 -15 -8 -19 -4 -4 4 -1 11 7 16 8 5 17 7 19 4 3 -2 -1 -10 -7 -16z m-212
-208 c0 -5 -9 -10 -21 -10 -11 0 -17 5 -14 10 3 6 13 10 21 10 8 0 14 -4 14
-10z m220 -51 c0 -5 9 -9 20 -9 11 0 20 5 20 10 0 17 57 11 64 -6 10 -26 -3
-34 -54 -34 -84 0 -222 39 -144 41 16 0 38 4 49 8 22 9 45 4 45 -10z m430 -89
c10 0 11 -3 4 -10 -7 -7 -19 -8 -37 -1 -33 13 -36 26 -4 17 12 -3 29 -6 37 -6z
m-190 -779 c0 -10 -80 -22 -93 -14 -5 3 -3 9 4 14 18 11 89 12 89 0z m-1032
-428 c-4 -21 -54 -51 -65 -39 -4 5 -2 11 6 14 7 2 21 13 30 22 21 24 33 25 29
3z"/>
<path d="M6885 4170 c-3 -5 1 -10 10 -10 9 0 13 5 10 10 -3 6 -8 10 -10 10 -2
0 -7 -4 -10 -10z"/>
<path d="M6020 4142 c0 -4 5 -13 10 -18 14 -14 -100 -6 -117 8 -11 9 -173 1
-173 -9 0 -3 111 -114 248 -248 l247 -244 80 80 80 79 -180 180 c-168 169
-195 192 -195 172z"/>
<path d="M1660 3814 c0 -17 22 -14 28 4 2 7 -3 12 -12 12 -9 0 -16 -7 -16 -16z"/>
<path d="M5357 3790 c-14 -11 -31 -20 -38 -20 -9 0 -10 -3 -3 -10 12 -12 104
24 104 40 0 17 -36 11 -63 -10z"/>
<path d="M1662 3761 c4 -13 18 -16 19 -4 0 4 -5 9 -11 12 -7 2 -11 -2 -8 -8z"/>
<path d="M947 3673 c-12 -11 -8 -23 8 -23 8 0 15 7 15 15 0 16 -12 20 -23 8z"/>
<path d="M832 3573 c-6 -2 -10 -8 -7 -13 6 -10 55 0 55 11 0 10 -27 11 -48 2z"/>
<path d="M7180 3570 c0 -5 -9 -10 -21 -10 -11 0 -18 -4 -14 -10 7 -11 47 2 53
18 2 7 -1 12 -7 12 -6 0 -11 -4 -11 -10z"/>
<path d="M5424 2759 c-445 -444 -810 -813 -812 -818 -4 -13 35 -34 42 -22 4 5
0 11 -6 14 -7 2 -10 7 -7 11 3 4 18 2 33 -4 15 -5 41 -10 57 -10 27 0 28 1 17
23 -7 12 -17 26 -23 30 -5 5 4 6 20 3 115 -20 111 -20 97 -3 -18 21 -7 24 71
22 37 -2 67 1 67 6 0 5 -16 9 -36 9 -24 0 -34 4 -32 13 3 7 27 13 64 15 l59 2
680 680 680 680 -81 79 -81 80 -809 -810z"/>
<path d="M942 3547 c-8 -10 -6 -13 11 -12 31 0 33 -19 3 -22 -44 -3 -116 -52
-116 -79 0 -6 -6 -17 -14 -23 -13 -11 -12 -15 5 -32 19 -19 22 -20 54 -5 19 9
53 21 77 26 24 5 67 15 96 22 l52 13 -63 63 c-63 62 -85 73 -105 49z m68 -71
c0 -3 -4 -8 -10 -11 -5 -3 -10 -1 -10 4 0 6 5 11 10 11 6 0 10 -2 10 -4z"/>
<path d="M745 3530 c-3 -5 -1 -10 4 -10 6 0 11 5 11 10 0 6 -2 10 -4 10 -3 0
-8 -4 -11 -10z"/>
<path d="M555 3485 l-30 -13 32 -1 c17 -1 34 3 38 8 10 17 -9 19 -40 6z"/>
<path d="M418 3458 c-41 -14 -34 -27 10 -17 20 5 40 9 45 9 4 0 7 5 7 10 0 12
-26 12 -62 -2z"/>
<path d="M674 3395 c-15 -11 -16 -14 -4 -15 21 0 44 16 33 23 -6 4 -19 0 -29
-8z"/>
<path d="M717 3382 c-22 -3 -27 -7 -22 -23 4 -11 2 -19 -4 -19 -6 0 -11 -4
-11 -9 0 -5 15 -5 36 -1 41 9 56 20 29 20 -18 0 -18 0 0 13 22 17 11 24 -28
19z"/>
<path d="M1160 3318 c-50 -10 -144 -36 -175 -48 -16 -7 -13 -9 15 -9 19 -1 49
7 65 17 32 20 125 38 108 21 -5 -5 -46 -22 -92 -38 -45 -16 -84 -31 -86 -33
-8 -8 736 -743 760 -751 27 -9 32 -22 13 -30 -7 -3 3 -6 23 -6 19 -1 73 10
119 24 46 14 94 25 107 25 13 0 23 1 23 3 0 3 -822 825 -830 830 -3 2 -25 -1
-50 -5z m783 -805 c27 -15 -42 -39 -123 -42 -35 -2 -35 -1 -12 14 58 41 97 49
135 28z"/>
<path d="M882 3190 c-18 -11 -43 -20 -56 -20 -13 0 -37 -13 -53 -29 -17 -16
-43 -37 -57 -46 -19 -13 -25 -23 -21 -36 5 -14 -2 -24 -25 -37 -40 -22 -156
-107 -205 -150 -24 -22 -35 -38 -31 -49 8 -21 -11 -43 -38 -43 -25 0 -76 -48
-76 -71 0 -7 -16 -32 -35 -54 -19 -22 -32 -32 -29 -22 11 32 -13 17 -74 -47
-35 -36 -62 -73 -62 -85 0 -14 -5 -19 -15 -15 -8 3 -20 2 -27 -3 -7 -4 -22 -8
-33 -8 -15 0 -19 -7 -20 -38 -1 -20 -8 -48 -15 -62 -20 -38 -2 -44 29 -10 61
67 92 90 100 77 5 -9 25 4 67 43 32 30 70 58 83 62 14 3 45 21 69 40 24 18 53
33 65 33 35 0 144 38 192 65 36 22 66 30 128 34 4 1 7 7 7 15 0 15 48 31 59
20 3 -3 -5 -14 -18 -23 -56 -37 -65 -49 -66 -85 -2 -40 2 -43 30 -23 13 11 15
16 6 22 -9 5 -3 17 20 41 32 33 59 44 59 24 0 -5 6 -10 14 -10 26 0 27 -19 4
-50 -18 -24 -28 -30 -46 -25 -17 4 -28 0 -38 -12 -18 -24 -17 -33 2 -33 11 0
14 -6 9 -21 -7 -20 -4 -21 21 -16 16 3 38 9 48 13 16 6 18 4 13 -9 -4 -11 -1
-17 7 -17 17 0 38 24 29 33 -3 4 6 7 21 7 26 0 26 0 10 -25 -20 -31 -44 -45
-77 -45 -30 0 -40 -10 -26 -26 8 -9 4 -21 -12 -43 -13 -17 -28 -31 -33 -31 -6
-1 -23 -11 -38 -23 -21 -17 -25 -28 -21 -50 5 -25 8 -27 42 -23 20 3 64 16 98
31 82 34 127 43 121 24 -2 -8 -16 -15 -31 -17 -14 -2 -31 -10 -37 -18 -7 -8
-22 -14 -35 -14 -22 0 -55 -28 -55 -47 0 -6 -7 -16 -15 -23 -30 -25 -7 -20 66
14 41 19 76 32 79 29 3 -3 -10 -18 -28 -33 -19 -15 -29 -30 -24 -34 5 -3 17 3
26 13 10 11 32 22 51 25 18 4 38 13 45 21 17 20 79 20 87 -1 4 -12 14 -14 38
-10 22 5 36 2 45 -9 11 -13 8 -15 -16 -15 -16 0 -49 -7 -73 -15 -24 -9 -64
-18 -90 -22 -45 -6 -90 -27 -74 -35 27 -14 267 14 287 33 16 15 1 19 -34 9
-19 -5 -36 -7 -39 -4 -8 8 21 24 45 24 12 0 28 10 37 23 11 16 18 19 27 11 29
-28 139 23 136 64 -1 12 14 19 59 29 33 8 74 20 92 28 17 8 42 15 56 15 13 0
38 3 55 6 64 13 46 35 -345 427 -204 204 -380 373 -390 375 -10 1 -33 -7 -51
-18z m392 -389 c8 -13 -45 -34 -57 -22 -7 7 -3 14 14 20 31 13 37 13 43 2z
m-354 -130 c0 -5 -6 -14 -14 -20 -11 -9 -16 -9 -21 0 -4 6 -1 15 6 20 18 11
29 11 29 0z m260 -170 c0 -5 -7 -11 -15 -15 -15 -5 -20 5 -8 17 9 10 23 9 23
-2z m-1010 -25 c0 -3 -4 -8 -10 -11 -5 -3 -10 -1 -10 4 0 6 5 11 10 11 6 0 10
-2 10 -4z m644 -111 c-25 -33 -44 -38 -44 -12 0 11 45 44 63 46 4 1 -4 -15
-19 -34z m361 -35 c3 -5 -3 -10 -15 -10 -12 0 -18 5 -15 10 3 6 10 10 15 10 5
0 12 -4 15 -10z m95 -25 c-14 -17 -40 -20 -40 -6 0 5 10 12 23 14 12 2 24 5
26 6 2 0 -2 -6 -9 -14z m85 8 c-11 -3 -23 -10 -26 -15 -8 -12 -29 -2 -29 13 0
5 17 8 38 8 21 -1 29 -3 17 -6z"/>
<path d="M7117 2863 c-15 -14 -6 -23 22 -23 16 0 34 7 41 15 11 13 7 15 -22
15 -19 0 -38 -3 -41 -7z"/>
<path d="M6953 2823 c-7 -2 -13 -8 -13 -13 0 -10 38 -1 46 11 6 10 -13 11 -33
2z"/>
<path d="M6890 2787 c0 -32 -29 -47 -91 -47 -21 0 -39 -4 -39 -9 0 -15 60 -25
73 -12 6 6 28 11 49 11 27 0 38 4 38 15 0 8 -5 15 -11 15 -6 0 -9 6 -6 13 3 8
1 20 -4 28 -6 10 -9 6 -9 -14z"/>
<path d="M325 2790 c-3 -5 1 -10 9 -10 9 0 16 5 16 10 0 6 -4 10 -9 10 -6 0
-13 -4 -16 -10z"/>
<path d="M6637 2766 c-16 -23 -15 -24 15 -30 39 -8 41 -5 29 28 -13 32 -24 33
-44 2z"/>
<path d="M6415 2714 c-20 -15 -12 -17 19 -5 11 4 15 10 10 13 -5 4 -18 0 -29
-8z"/>
<path d="M205 2670 c-21 -22 -36 -43 -32 -47 8 -7 87 65 87 79 0 17 -17 7 -55
-32z"/>
<path d="M6534 2690 c-21 -8 -42 -30 -29 -30 10 0 65 30 65 35 0 7 -11 5 -36
-5z"/>
<path d="M138 2646 c-27 -34 -38 -63 -19 -51 22 13 72 85 59 85 -7 0 -25 -16
-40 -34z"/>
<path d="M6333 2644 c-23 -10 -14 -22 21 -28 34 -6 87 6 70 16 -15 10 -78 18
-91 12z"/>
<path d="M6458 2623 c7 -3 16 -2 19 1 4 3 -2 6 -13 5 -11 0 -14 -3 -6 -6z"/>
<path d="M6555 2610 c-3 -6 5 -10 19 -10 14 0 28 5 31 10 3 6 -5 10 -19 10
-14 0 -28 -4 -31 -10z"/>
<path d="M6171 2591 c-17 -11 -6 -17 47 -26 42 -7 43 -6 33 14 -12 22 -54 28
-80 12z"/>
<path d="M37 2532 c-48 -49 -49 -78 -1 -31 38 36 60 69 46 69 -4 0 -25 -17
-45 -38z"/>
<path d="M6320 2560 c-19 -12 -13 -16 38 -24 41 -6 60 7 25 17 -10 2 -25 7
-33 11 -8 3 -22 2 -30 -4z"/>
<path d="M2013 2449 c-13 -5 -23 -13 -23 -19 0 -13 10 -12 39 4 28 16 16 27
-16 15z"/>
<path d="M2090 2402 c0 -17 37 -42 61 -42 l24 0 -28 18 c-15 10 -24 22 -20 25
3 4 -3 7 -15 7 -12 0 -22 -4 -22 -8z"/>
<path d="M1482 2330 c-32 -17 -32 -19 -12 -25 25 -8 72 13 67 29 -5 16 -20 15
-55 -4z"/>
<path d="M1642 2339 c2 -6 8 -10 13 -10 5 0 11 4 13 10 2 6 -4 11 -13 11 -9 0
-15 -5 -13 -11z"/>
<path d="M1650 2300 c0 -5 5 -10 10 -10 6 0 10 5 10 10 0 6 -4 10 -10 10 -5 0
-10 -4 -10 -10z"/>
<path d="M2224 2282 c7 -21 -18 -48 -49 -54 -12 -2 -20 -11 -20 -23 0 -14 -12
-24 -42 -35 -61 -22 -63 -30 -7 -30 l49 0 -30 -20 -30 -20 43 0 c46 0 51 -6
25 -26 -28 -20 -8 -28 80 -30 45 -2 95 -6 110 -10 17 -4 38 -2 51 5 17 10 28
9 51 -3 79 -42 59 -10 -86 134 -128 127 -156 149 -145 112z"/>
<path d="M1365 2240 c-3 -5 -2 -10 4 -10 5 0 13 5 16 10 3 6 2 10 -4 10 -5 0
-13 -4 -16 -10z"/>
<path d="M1269 2214 c-11 -14 -9 -15 16 -12 16 1 30 9 33 16 6 18 -33 15 -49
-4z"/>
<path d="M1028 2133 c-10 -3 -18 -9 -18 -14 0 -12 37 -12 45 0 7 12 -5 19 -27
14z"/>
<path d="M913 2098 c-31 -10 -45 -28 -23 -28 16 0 60 23 60 32 0 4 -1 8 -2 7
-2 -1 -18 -6 -35 -11z"/>
<path d="M5383 2077 c-44 -15 -42 -28 2 -16 20 6 45 7 55 4 24 -7 27 10 4 19
-18 7 -18 7 -61 -7z"/>
<path d="M5062 2023 c-21 -8 -4 -21 24 -15 19 3 22 7 12 13 -14 10 -17 10 -36
2z"/>
<path d="M2200 2010 c0 -5 10 -10 23 -11 12 0 36 -2 52 -4 17 -2 88 -6 160 -9
100 -5 127 -4 118 5 -7 7 -34 16 -60 20 -71 12 -293 11 -293 -1z"/>
<path d="M2105 2000 c3 -5 17 -10 31 -10 13 0 24 5 24 10 0 6 -14 10 -31 10
-17 0 -28 -4 -24 -10z"/>
<path d="M2010 1990 c-22 -7 -21 -8 13 -9 20 -1 37 4 37 9 0 11 -14 11 -50 0z"/>
<path d="M4813 1936 c-13 -6 -23 -13 -23 -16 0 -3 20 -13 45 -22 43 -16 45
-16 45 2 0 10 6 20 13 23 17 6 7 13 -28 19 -16 3 -40 0 -52 -6z"/>
<path d="M5630 1905 c0 -9 9 -15 25 -15 16 0 25 6 25 15 0 9 -9 15 -25 15 -16
0 -25 -6 -25 -15z"/>
<path d="M5430 1890 c-12 -7 -8 -10 15 -10 17 0 37 5 45 10 12 7 8 10 -15 10
-16 0 -37 -5 -45 -10z"/>
<path d="M4616 1881 c5 -5 27 -6 49 -1 l40 8 -49 1 c-30 1 -46 -3 -40 -8z"/>
<path d="M5255 1880 c-3 -5 3 -10 14 -10 11 0 23 5 26 10 3 6 -3 10 -14 10
-11 0 -23 -4 -26 -10z"/>
<path d="M5328 1883 c7 -3 16 -2 19 1 4 3 -2 6 -13 5 -11 0 -14 -3 -6 -6z"/>
<path d="M4570 1850 c0 -5 5 -10 11 -10 5 0 7 5 4 10 -3 6 -8 10 -11 10 -2 0
-4 -4 -4 -10z"/>
<path d="M5015 1851 c20 -21 262 -30 295 -11 9 6 -20 10 -81 10 -53 0 -125 3
-160 6 -47 5 -61 4 -54 -5z"/>
<path d="M4605 1810 c-3 -5 -2 -10 4 -10 5 0 13 5 16 10 3 6 2 10 -4 10 -5 0
-13 -4 -16 -10z"/>
<path d="M4660 1800 c20 -13 47 -13 55 0 4 6 -9 10 -32 10 -28 0 -34 -3 -23
-10z"/>
<path d="M4450 1790 c0 -5 4 -10 9 -10 6 0 13 5 16 10 3 6 -1 10 -9 10 -9 0
-16 -4 -16 -10z"/>
<path d="M2605 1570 c3 -5 8 -10 11 -10 2 0 4 5 4 10 0 6 -5 10 -11 10 -5 0
-7 -4 -4 -10z"/>
<path d="M2778 1400 c12 -11 24 -20 28 -20 4 0 -1 9 -11 20 -10 11 -23 20 -28
20 -6 0 -1 -9 11 -20z"/>
<path d="M2820 1361 c0 -6 4 -13 10 -16 6 -3 7 1 4 9 -7 18 -14 21 -14 7z"/>
<path d="M2870 1310 c0 -5 5 -10 11 -10 5 0 7 5 4 10 -3 6 -8 10 -11 10 -2 0
-4 -4 -4 -10z"/>
<path d="M2916 1265 c9 -14 20 -25 26 -25 11 0 -23 49 -35 50 -4 0 0 -11 9
-25z"/>
<path d="M2980 1202 c0 -10 22 -32 32 -32 12 0 -2 28 -18 34 -8 3 -14 2 -14
-2z"/>
<path d="M3030 1150 c0 -5 5 -10 11 -10 5 0 7 5 4 10 -3 6 -8 10 -11 10 -2 0
-4 -4 -4 -10z"/>
<path d="M3060 1122 c0 -5 9 -17 20 -27 22 -20 26 -9 6 18 -14 18 -26 22 -26
9z"/>
</g>
</svg>
